HIERARCHY
ROOT Hips
{
	OFFSET 0.000000 121.760803 0.000000
	CHANNELS 6 Xposition Yposition Zposition Xrotation Yrotation Zrotation 
	JOINT Spine
	{
		OFFSET 0.072000 7.257294 -0.789700
		CHANNELS 3 Xrotation Yrotation Zrotation
		JOINT Spine1
		{
			OFFSET 0.000000 12.508769 -0.658067
			CHANNELS 3 Xrotation Yrotation Zrotation
			JOINT Spine1_split
			{
				OFFSET 0.000000 12.508769 -0.658067
				CHANNELS 3 Xrotation Yrotation Zrotation
				JOINT Spine2
				{
					OFFSET 0.000000 12.508769 -0.658067
					CHANNELS 3 Xrotation Yrotation Zrotation
					JOINT Neck
					{
						OFFSET 0.000000 14.033295 7.520400
						CHANNELS 3 Xrotation Yrotation Zrotation
						JOINT Head
						{
							OFFSET 0.000000 8.198502 5.703100
							CHANNELS 3 Xrotation Yrotation Zrotation
							JOINT HeadTop_End
							{
								OFFSET 0.000000 17.760803 13.332701
								CHANNELS 3 Xrotation Yrotation Zrotation
								End Site
								{
									OFFSET 0.000000 0.000000 0.000000
								}
							}
						}
					}
					JOINT LeftShoulder
					{
						OFFSET 6.292450 5.785301 -0.669000
						CHANNELS 3 Xrotation Yrotation Zrotation
						JOINT LeftShoulder_split
						{
							OFFSET 6.292450 5.785301 -0.669000
							CHANNELS 3 Xrotation Yrotation Zrotation
							JOINT LeftArm
							{
								OFFSET 13.907140 -6.093903 1.965100
								CHANNELS 3 Xrotation Yrotation Zrotation
								JOINT LeftForeArm
								{
									OFFSET 34.140198 0.000000 0.000000
									CHANNELS 3 Xrotation Yrotation Zrotation
									JOINT LeftHand
									{
										OFFSET 40.960209 0.000000 0.000000
										CHANNELS 3 Xrotation Yrotation Zrotation
										JOINT LeftHandThumb1
										{
											OFFSET 10.006996 -7.170425 9.573125
											CHANNELS 3 Xrotation Yrotation Zrotation
											JOINT LeftHandThumb2
											{
												OFFSET 1.835007 -1.059448 1.059443
												CHANNELS 3 Xrotation Yrotation Zrotation
												JOINT LeftHandThumb3
												{
													OFFSET 2.112267 -1.219513 1.219518
													CHANNELS 3 Xrotation Yrotation Zrotation
													JOINT LeftHandThumb4
													{
														OFFSET 4.843811 -2.796570 2.796576
														CHANNELS 3 Xrotation Yrotation Zrotation
														End Site
														{
															OFFSET 0.000000 0.000000 0.000000
														}
													}
												}
											}
										}
										JOINT LeftHandIndex1
										{
											OFFSET 18.389847 -0.922348 4.596882
											CHANNELS 3 Xrotation Yrotation Zrotation
											JOINT LeftHandIndex2
											{
												OFFSET 4.711273 0.000000 0.000000
												CHANNELS 3 Xrotation Yrotation Zrotation
												JOINT LeftHandIndex3
												{
													OFFSET 2.886131 0.000000 0.000000
													CHANNELS 3 Xrotation Yrotation Zrotation
													JOINT LeftHandIndex4
													{
														OFFSET 6.145912 0.000000 0.000000
														CHANNELS 3 Xrotation Yrotation Zrotation
														End Site
														{
															OFFSET 0.000000 0.000000 0.000000
														}
													}
												}
											}
										}
										JOINT LeftHandMiddle1
										{
											OFFSET 18.013008 0.000000 0.000000
											CHANNELS 3 Xrotation Yrotation Zrotation
											JOINT LeftHandMiddle2
											{
												OFFSET 4.946693 0.000000 0.000000
												CHANNELS 3 Xrotation Yrotation Zrotation
												JOINT LeftHandMiddle3
												{
													OFFSET 3.342232 0.000000 0.000000
													CHANNELS 3 Xrotation Yrotation Zrotation
													JOINT LeftHandMiddle4
													{
														OFFSET 4.461754 0.000000 0.000000
														CHANNELS 3 Xrotation Yrotation Zrotation
														End Site
														{
															OFFSET 0.000000 0.000000 0.000000
														}
													}
												}
											}
										}
										JOINT LeftHandRing1
										{
											OFFSET 15.849892 -0.102921 -4.126150
											CHANNELS 3 Xrotation Yrotation Zrotation
											JOINT LeftHandRing2
											{
												OFFSET 3.527054 0.000000 0.000000
												CHANNELS 3 Xrotation Yrotation Zrotation
												JOINT LeftHandRing3
												{
													OFFSET 2.961098 0.000000 0.000000
													CHANNELS 3 Xrotation Yrotation Zrotation
													JOINT LeftHandRing4
													{
														OFFSET 4.927200 0.000000 0.000000
														CHANNELS 3 Xrotation Yrotation Zrotation
														End Site
														{
															OFFSET 0.000000 0.000000 0.000000
														}
													}
												}
											}
										}
										JOINT LeftHandPinky1
										{
											OFFSET 12.791824 -0.832031 -6.799156
											CHANNELS 3 Xrotation Yrotation Zrotation
											JOINT LeftHandPinky2
											{
												OFFSET 3.327133 0.000000 0.000000
												CHANNELS 3 Xrotation Yrotation Zrotation
												JOINT LeftHandPinky3
												{
													OFFSET 3.014900 0.000000 0.000000
													CHANNELS 3 Xrotation Yrotation Zrotation
													JOINT LeftHandPinky4
													{
														OFFSET 5.847786 0.000000 0.000000
														CHANNELS 3 Xrotation Yrotation Zrotation
														End Site
														{
															OFFSET 0.000000 0.000000 0.000000
														}
													}
												}
											}
										}
									}
								}
							}
						}
					}
					JOINT RightShoulder
					{
						OFFSET -6.292450 5.785301 -0.669000
						CHANNELS 3 Xrotation Yrotation Zrotation
						JOINT RightShoulder_split
						{
							OFFSET -6.292450 5.785301 -0.669000
							CHANNELS 3 Xrotation Yrotation Zrotation
							JOINT RightArm
							{
								OFFSET -13.907140 -6.093903 1.965100
								CHANNELS 3 Xrotation Yrotation Zrotation
								JOINT RightForeArm
								{
									OFFSET -34.140198 0.000000 0.000000
									CHANNELS 3 Xrotation Yrotation Zrotation
									JOINT RightHand
									{
										OFFSET -40.960209 0.000000 0.000000
										CHANNELS 3 Xrotation Yrotation Zrotation
										JOINT RightHandThumb1
										{
											OFFSET -10.007050 -7.170456 9.573117
											CHANNELS 3 Xrotation Yrotation Zrotation
											JOINT RightHandThumb2
											{
												OFFSET -1.835007 -1.059448 1.059443
												CHANNELS 3 Xrotation Yrotation Zrotation
												JOINT RightHandThumb3
												{
													OFFSET -2.112267 -1.219513 1.219518
													CHANNELS 3 Xrotation Yrotation Zrotation
													JOINT RightHandThumb4
													{
														OFFSET -4.843834 -2.796585 2.796590
														CHANNELS 3 Xrotation Yrotation Zrotation
														End Site
														{
															OFFSET 0.000000 0.000000 0.000000
														}
													}
												}
											}
										}
										JOINT RightHandIndex1
										{
											OFFSET -18.389870 -0.922424 4.596786
											CHANNELS 3 Xrotation Yrotation Zrotation
											JOINT RightHandIndex2
											{
												OFFSET -4.711273 0.000000 0.000000
												CHANNELS 3 Xrotation Yrotation Zrotation
												JOINT RightHandIndex3
												{
													OFFSET -2.886131 0.000000 0.000000
													CHANNELS 3 Xrotation Yrotation Zrotation
													JOINT RightHandIndex4
													{
														OFFSET -6.145920 0.000000 0.000000
														CHANNELS 3 Xrotation Yrotation Zrotation
														End Site
														{
															OFFSET 0.000000 0.000000 0.000000
														}
													}
												}
											}
										}
										JOINT RightHandMiddle1
										{
											OFFSET -18.013008 0.000000 0.000000
											CHANNELS 3 Xrotation Yrotation Zrotation
											JOINT RightHandMiddle2
											{
												OFFSET -4.946693 0.000000 0.000000
												CHANNELS 3 Xrotation Yrotation Zrotation
												JOINT RightHandMiddle3
												{
													OFFSET -3.342232 0.000000 0.000000
													CHANNELS 3 Xrotation Yrotation Zrotation
													JOINT RightHandMiddle4
													{
														OFFSET -4.461754 0.000000 0.000000
														CHANNELS 3 Xrotation Yrotation Zrotation
														End Site
														{
															OFFSET 0.000000 0.000000 0.000000
														}
													}
												}
											}
										}
										JOINT RightHandRing1
										{
											OFFSET -15.849876 -0.102936 -4.126237
											CHANNELS 3 Xrotation Yrotation Zrotation
											JOINT RightHandRing2
											{
												OFFSET -3.527054 0.000000 0.000000
												CHANNELS 3 Xrotation Yrotation Zrotation
												JOINT RightHandRing3
												{
													OFFSET -2.961098 0.000000 0.000000
													CHANNELS 3 Xrotation Yrotation Zrotation
													JOINT RightHandRing4
													{
														OFFSET -4.927200 0.000000 0.000000
														CHANNELS 3 Xrotation Yrotation Zrotation
														End Site
														{
															OFFSET 0.000000 0.000000 0.000000
														}
													}
												}
											}
										}
										JOINT RightHandPinky1
										{
											OFFSET -12.791786 -0.832077 -6.799222
											CHANNELS 3 Xrotation Yrotation Zrotation
											JOINT RightHandPinky2
											{
												OFFSET -3.327133 0.000000 0.000000
												CHANNELS 3 Xrotation Yrotation Zrotation
												JOINT RightHandPinky3
												{
													OFFSET -3.014900 0.000000 0.000000
													CHANNELS 3 Xrotation Yrotation Zrotation
													JOINT RightHandPinky4
													{
														OFFSET -5.847786 0.000000 0.000000
														CHANNELS 3 Xrotation Yrotation Zrotation
														End Site
														{
															OFFSET 0.000000 0.000000 0.000000
														}
													}
												}
											}
										}
									}
								}
							}
						}
					}
				}
			}
		}
	}
	JOINT LeftUpLeg
	{
		OFFSET 13.026900 -6.336304 -1.092800
		CHANNELS 3 Xrotation Yrotation Zrotation
		JOINT LeftLeg
		{
			OFFSET 0.524474 -46.096886 9.782700
			CHANNELS 3 Xrotation Yrotation Zrotation
			JOINT LeftFoot
			{
				OFFSET -0.524474 -53.427422 -12.948200
				CHANNELS 3 Xrotation Yrotation Zrotation
				JOINT LeftToeBase
				{
					OFFSET 0.192200 -14.009700 16.364100
					CHANNELS 3 Xrotation Yrotation Zrotation
					JOINT LeftToe_End
					{
						OFFSET -1.784700 -0.561700 9.474800
						CHANNELS 3 Xrotation Yrotation Zrotation
						End Site
						{
							OFFSET 0.000000 0.000000 0.000000
						}
					}
				}
			}
		}
	}
	JOINT RightUpLeg
	{
		OFFSET -12.883000 -6.336304 -1.092800
		CHANNELS 3 Xrotation Yrotation Zrotation
		JOINT RightLeg
		{
			OFFSET -0.524587 -46.096825 9.782800
			CHANNELS 3 Xrotation Yrotation Zrotation
			JOINT RightFoot
			{
				OFFSET 0.524587 -53.427383 -12.948300
				CHANNELS 3 Xrotation Yrotation Zrotation
				JOINT RightToeBase
				{
					OFFSET -0.192200 -14.009700 16.364100
					CHANNELS 3 Xrotation Yrotation Zrotation
					JOINT RightToe_End
					{
						OFFSET 1.784700 -0.561700 9.474800
						CHANNELS 3 Xrotation Yrotation Zrotation
						End Site
						{
							OFFSET 0.000000 0.000000 0.000000
						}
					}
				}
			}
		}
	}
}
MOTION
Frames: 5
Frame Time: 0.016667
0.042227 97.773651 -0.641375 -14.106038 4.502983 -0.369421 20.019264 0.028354 0.839310 6.967089 -0.338070 0.675294 0.000000 0.000000 0.000000 6.967314 -0.337864 0.674353 -12.249458 -1.248218 -0.495995 -16.116726 -1.754206 -0.002254 -0.000000 0.000000 -0.000000 3.082220 -9.945122 -6.811322 0.000000 0.000000 0.000000 -13.959276 -7.908210 -60.295250 69.634270 -63.509107 71.597075 17.167884 -2.491265 -13.648308 2.689274 3.159880 6.593330 -0.080943 21.143667 -2.539998 -0.000001 0.000009 -0.000002 0.000000 0.000001 -0.000001 -10.621165 2.937290 -19.267716 1.669113 6.188696 -21.755669 -0.000002 0.000002 0.000002 0.000001 0.000001 0.000002 -13.823036 9.936962 -22.469208 6.048990 4.246427 -31.221963 0.000016 -0.000005 0.000014 0.000001 0.000003 0.000000 -10.744684 8.325277 -36.571080 3.038179 0.221622 -39.078702 0.000001 0.000004 -0.000003 0.000001 -0.000003 0.000000 -11.942421 9.095566 -39.265453 4.640647 -6.164086 -45.289304 0.000003 0.000002 -0.000005 -0.000001 0.000003 0.000000 8.709546 -2.418522 18.823148 0.000000 0.000000 0.000000 -21.494486 12.934335 56.855499 76.344098 65.516957 -70.724532 6.443801 -2.140692 3.545000 2.694435 -3.160168 -6.583865 -0.079191 -21.145998 2.540864 -0.000007 -0.000007 -0.000002 0.000001 -0.000001 -0.000001 -10.621216 -2.937109 19.269103 1.668968 -6.188775 21.755273 -0.000000 -0.000012 0.000000 -0.000000 0.000001 0.000002 -13.688475 -10.244134 24.164212 6.044749 -4.250381 31.223349 0.000005 0.000003 -0.000003 0.000000 -0.000002 0.000000 -10.744615 -8.325813 36.570008 3.042379 -0.220475 39.078757 -0.000001 0.000009 0.000005 -0.000001 -0.000001 -0.000001 -11.872859 -9.179256 39.251997 4.640939 6.162615 45.288836 0.000008 0.000009 0.000006 0.000001 0.000001 -0.000000 -20.766627 -3.180763 14.889799 56.529221 -0.553846 0.265981 -21.126272 -1.337592 -12.587186 -0.000107 -0.000006 0.000002 0.000000 -0.000000 -0.000000 -16.919164 -8.830507 -16.722542 56.151989 0.213801 -0.369143 -23.940899 -3.841539 11.514616 -0.000023 -0.000000 0.000002 -0.000000 -0.000002 0.000000 
0.050181 97.767761 -0.643881 -14.083246 4.516118 -0.381812 20.019228 0.028738 0.841660 6.967166 -0.337049 0.675000 0.000000 0.000000 0.000000 6.967380 -0.336798 0.673819 -12.274426 -1.249901 -0.501451 -16.104609 -1.759240 0.008366 -0.000001 -0.000000 -0.000000 3.081948 -9.940216 -6.846192 0.000000 0.000000 0.000000 -13.919029 -8.007093 -60.186561 69.508315 -63.495214 71.476079 17.165980 -2.496288 -13.676340 2.740405 3.355893 6.651975 -0.304245 20.508171 -2.520034 -0.000004 0.000008 -0.000000 -0.000001 0.000003 -0.000001 -10.843757 2.408691 -18.034232 1.583737 5.984707 -20.446048 -0.000001 0.000002 0.000002 -0.000001 0.000001 0.000000 -13.988349 9.479615 -21.637623 5.872539 4.134102 -30.142936 0.000019 -0.000008 0.000013 0.000000 0.000002 0.000000 -10.745586 7.991141 -35.808223 2.902329 0.024346 -37.900901 -0.000000 0.000009 -0.000004 0.000000 -0.000002 -0.000001 -11.884755 8.825188 -38.571755 4.536604 -6.270392 -44.699070 0.000002 0.000004 -0.000003 0.000000 0.000004 -0.000001 8.719992 -2.431950 18.863516 0.000000 0.000000 0.000000 -21.419395 13.027303 56.754149 76.284102 65.521540 -70.684357 6.443170 -2.129461 3.550591 2.691629 -3.150288 -6.581379 -0.140287 -20.912564 2.443738 -0.000005 -0.000007 0.000001 0.000000 -0.000001 -0.000003 -10.723859 -2.678725 18.376247 1.608008 -6.040027 20.834094 0.000003 -0.000006 0.000001 0.000005 0.000003 -0.000003 -13.789851 -9.992684 23.322255 5.930046 -4.112804 30.347678 0.000006 0.000002 -0.000001 -0.000001 -0.000002 -0.000001 -10.804184 -8.106044 35.619498 2.942607 -0.098404 38.315838 -0.000002 0.000007 0.000006 -0.000001 0.000003 0.000001 -11.920070 -8.998281 38.400433 4.514692 6.278571 44.542672 0.000009 0.000007 0.000006 -0.000000 0.000004 0.000001 -20.811841 -3.169308 14.900724 56.546634 -0.600467 0.266257 -21.127667 -1.324557 -12.557405 -0.000107 -0.000006 0.000002 0.000000 0.000000 -0.000000 -16.943592 -8.839249 -16.718136 56.155056 0.215573 -0.369032 -23.939065 -3.847350 11.518273 -0.000023 0.000002 0.000002 0.000000 -0.000000 0.000000 
0.068981 97.758850 -0.647610 -14.048196 4.549554 -0.402501 20.019273 0.029492 0.846286 6.967762 -0.333987 0.674075 0.000000 0.000000 0.000000 6.967983 -0.333704 0.672075 -12.339813 -1.259016 -0.511592 -16.061069 -1.772782 0.024099 -0.000001 0.000000 0.000000 3.081505 -9.932727 -6.899787 0.000000 0.000000 0.000000 -13.772143 -8.303073 -59.856602 69.210519 -63.491198 71.193644 17.161972 -2.546425 -13.762103 2.843741 3.755985 6.771127 -0.770441 19.209951 -2.488546 -0.000001 0.000007 0.000001 0.000001 -0.000000 0.000003 -11.271554 1.302784 -15.505457 1.424476 5.551981 -17.730247 0.000001 0.000003 0.000002 -0.000000 0.000001 0.000002 -14.321380 8.535482 -19.931537 5.513427 3.887924 -27.908909 0.000017 -0.000008 0.000015 0.000001 -0.000000 0.000001 -10.734827 7.300032 -34.231774 2.630251 -0.392179 -35.470706 -0.000001 0.000007 -0.000005 -0.000001 0.000001 0.000001 -11.758246 8.260796 -37.125281 4.322556 -6.494790 -43.471921 0.000002 0.000001 -0.000002 0.000000 0.000001 -0.000002 8.739783 -2.465332 18.929302 0.000000 0.000000 0.000000 -21.199618 13.256771 56.475586 76.163972 65.580335 -70.597409 6.440281 -2.094180 3.595610 2.684931 -3.126745 -6.575414 -0.271214 -20.426825 2.250009 -0.000004 -0.000006 -0.000000 0.000004 0.000002 -0.000001 -10.925242 -2.140307 16.541876 1.491018 -5.724727 18.914802 -0.000005 -0.000011 0.000001 -0.000003 0.000002 -0.000000 -13.991217 -9.467907 21.606984 5.700131 -3.821558 28.537087 0.000003 -0.000002 -0.000003 -0.000001 -0.000001 -0.000002 -10.911720 -7.639106 33.676692 2.742878 0.160231 36.738495 -0.000001 0.000007 0.000005 0.000001 -0.000001 0.000000 -12.003660 -8.605893 36.648965 4.261004 6.522145 43.011026 0.000007 0.000006 0.000007 -0.000001 0.000005 0.000001 -20.888501 -3.152432 14.915103 56.577500 -0.684352 0.266643 -21.129870 -1.304982 -12.500264 -0.000107 -0.000006 0.000002 0.000000 -0.000000 -0.000000 -16.976019 -8.860602 -16.714740 56.155555 0.216852 -0.368810 -23.935280 -3.859496 11.529531 -0.000023 0.000002 0.000002 -0.000000 0.000000 0.000000 
0.092967 97.757751 -0.642729 -14.041892 4.595023 -0.409236 20.019641 0.029931 0.849216 6.970450 -0.329654 0.671555 0.000000 0.000000 0.000000 6.970665 -0.329434 0.668393 -12.447034 -1.280075 -0.519117 -15.961776 -1.792115 0.025987 0.000000 0.000000 -0.000000 3.083194 -9.935516 -6.902657 0.000000 0.000000 0.000000 -13.502999 -8.789851 -59.312379 68.869754 -63.545956 70.887180 17.160121 -2.676778 -13.924313 2.936499 4.117323 6.878269 -1.207025 18.029206 -2.472051 -0.000004 0.000008 -0.000001 0.000000 -0.000001 0.000000 -11.627922 0.244300 -13.176307 1.292640 5.132256 -15.152107 0.000002 0.000005 -0.000000 0.000001 -0.000000 0.000004 -14.610801 7.654093 -18.356429 5.188260 3.625274 -25.799301 0.000016 -0.000011 0.000015 -0.000001 0.000001 0.000001 -10.691631 6.650393 -32.754596 2.397537 -0.806231 -33.196236 -0.000000 0.000004 -0.000006 0.000000 0.000002 0.000001 -11.617400 7.716417 -35.737742 4.124014 -6.717371 -42.299262 0.000001 0.000006 0.000002 -0.000000 -0.000001 -0.000003 8.752993 -2.509403 18.951111 0.000000 0.000000 0.000000 -20.864452 13.561951 56.069293 76.084319 65.725749 -70.530350 6.436105 -2.033716 3.726639 2.676294 -3.096404 -6.567722 -0.405723 -19.962992 2.085443 0.000001 -0.000006 -0.000001 0.000003 0.000000 -0.000002 -11.113378 -1.627063 14.850580 1.387897 -5.417892 17.068564 0.000000 -0.000010 -0.000004 -0.000001 -0.000002 0.000005 -14.172687 -8.971371 20.058905 5.490036 -3.541205 26.833406 0.000003 0.000003 -0.000003 -0.000000 -0.000000 0.000001 -10.985414 -7.177307 31.907741 2.563237 0.413054 35.256118 -0.000001 0.000011 0.000005 0.000002 -0.000002 -0.000001 -12.051320 -8.201152 35.024418 4.032088 6.754998 41.602935 0.000008 0.000007 0.000007 -0.000000 -0.000000 -0.000001 -20.917130 -3.157284 14.905578 56.594111 -0.725805 0.266661 -21.134026 -1.303544 -12.461335 -0.000107 -0.000006 0.000002 0.000000 0.000000 0.000000 -16.963181 -8.890149 -16.728100 56.141737 0.213581 -0.368636 -23.934525 -3.869220 11.549466 -0.000023 0.000002 0.000002 0.000000 0.000000 -0.000000 
0.124391 97.762489 -0.610321 -14.042988 4.652896 -0.403896 20.021668 0.030408 0.848491 6.977816 -0.325596 0.664433 0.000000 0.000000 0.000000 6.978043 -0.325380 0.661028 -12.616692 -1.310841 -0.527832 -15.787572 -1.817843 0.025407 0.000001 -0.000000 -0.000000 3.089949 -9.968826 -6.840616 0.000000 0.000000 0.000000 -13.142225 -9.459944 -58.568654 68.458494 -63.706226 70.544653 17.163004 -2.865843 -14.185322 3.029046 4.480042 6.985275 -1.661959 16.835557 -2.468885 -0.000003 0.000010 -0.000003 0.000001 0.000002 -0.000004 -11.959982 -0.876246 -10.789246 1.176345 4.680382 -12.432952 -0.000002 0.000006 0.000005 0.000000 0.000003 0.000000 -14.862519 6.731732 -16.741045 4.859617 3.321911 -23.585736 0.000017 -0.000009 0.000013 0.000001 -0.000001 -0.000002 -10.616300 5.970866 -31.214118 2.173804 -1.258510 -30.829804 -0.000001 0.000008 -0.000004 -0.000000 0.000001 -0.000000 -11.450506 7.133081 -34.257773 3.918141 -6.960411 -41.054956 0.000000 0.000011 0.000000 0.000001 -0.000003 -0.000001 8.761115 -2.565049 18.941633 0.000000 0.000000 0.000000 -20.443543 13.957702 55.550782 76.088758 65.933810 -70.542918 6.436965 -1.958727 3.996288 2.664874 -3.056389 -6.557591 -0.558273 -19.470969 1.931777 0.000001 -0.000005 0.000001 0.000000 -0.000001 0.000000 -11.340734 -1.068220 13.129829 1.290254 -5.085697 15.097387 -0.000002 -0.000010 0.000004 0.000001 -0.000002 0.000002 -14.354816 -8.450605 18.506203 5.277414 -3.241922 25.051549 0.000006 -0.000001 -0.000004 0.000000 0.000000 -0.000000 -11.034071 -6.672188 30.117507 2.384057 0.686246 33.707513 -0.000001 0.000010 0.000006 0.000000 -0.000003 -0.000001 -12.068475 -7.742459 33.349440 3.802669 7.000837 40.163527 0.000008 0.000006 0.000006 -0.000001 0.000003 0.000001 -20.905379 -3.198823 14.864365 56.601539 -0.716526 0.266632 -21.154918 -1.308676 -12.446897 -0.000107 -0.000005 0.000002 0.000000 0.000001 0.000000 -16.917064 -8.936052 -16.763214 56.114768 0.213225 -0.368506 -23.948921 -3.876043 11.578065 -0.000023 0.000000 0.000002 -0.000000 -0.000002 0.000000 
